<svg xmlns="http://www.w3.org/2000/svg" xmlns:xlink="http://www.w3.org/1999/xlink" xmlns:xodm="http://www.corel.com/coreldraw/odm/2003" xml:space="preserve" version="1.1" style="shape-rendering:geometricPrecision;text-rendering:geometricPrecision;image-rendering:optimizeQuality;" viewBox="0 0 6500 8125" x="0px" y="0px" fill-rule="evenodd" clip-rule="evenodd"><defs><style type="text/css">
   
    .fil0 {fill:black;fill-rule:nonzero}
   
  </style></defs><g><path class="fil0" d="M93.1 2872.9l6139.7 -1950.6c92.2,-29.4 180.2,55.1 154.7,148.4l-1074.2 3930.1c-19,69.4 -93.6,107.4 -160.9,81.9l-2169.1 -820.4c-85.3,-32.3 -106.4,-143.4 -38.8,-204.6l1701.6 -1541.8c104.6,-94.7 -8.3,-261.9 -135.3,-200.1l-2848.5 1385.4c-31.2,15.2 -67.3,16.3 -99.4,3.2l-1478.9 -602.2c-105.7,-43.1 -99.7,-194.8 9.1,-229.3zm3412.9 332.3c53.4,-46.4 -5.9,-130 -67.4,-95l-1357.4 741.3c-122.4,69.7 -179.9,215.1 -138.3,349.7l419.3 1411.7c21.3,71.5 111.1,94.6 164.2,42.2l836.9 -792.2c34.2,-33.8 23.3,-91.5 -20.9,-110.3l-868.4 -432.8c-47.7,-23.8 -57.1,-87.7 -18.4,-124.2l1050.4 -990.4z"/></g><text x="0" y="6515" fill="#000000" font-size="5px" font-weight="bold" font-family="'Helvetica Neue', Helvetica, Arial-Unicode, Arial, Sans-serif">Created by popcornarts</text><text x="0" y="6520" fill="#000000" font-size="5px" font-weight="bold" font-family="'Helvetica Neue', Helvetica, Arial-Unicode, Arial, Sans-serif">from the Noun Project</text></svg>